<svg id="Layer_1" data-name="Layer 1" xmlns="http://www.w3.org/2000/svg" viewBox="0 0 600 600"><defs><style>.cls-1{fill:#fff7e7;}.cls-14,.cls-16,.cls-2,.cls-28,.cls-3,.cls-32,.cls-8{isolation:isolate;}.cls-3{font-size:29.88px;letter-spacing:0em;}.cls-14,.cls-3{font-family:SegoeUI-Bold, Segoe UI;font-weight:700;}.cls-4{letter-spacing:-0.01em;}.cls-5{letter-spacing:0em;}.cls-6{letter-spacing:0.04em;}.cls-7{letter-spacing:0em;}.cls-8{font-size:21.23px;letter-spacing:0em;}.cls-19,.cls-8{fill:#393939;}.cls-16,.cls-8{font-family:SegoeUI, Segoe UI;}.cls-9{fill:#fedc92;}.cls-10{fill:#fdb926;}.cls-11{fill:#e64934;}.cls-12{fill:#00a64f;}.cls-13,.cls-14{fill:#fff;}.cls-14{font-size:7.86px;letter-spacing:0em;}.cls-15{letter-spacing:0.03em;}.cls-16{font-size:6.29px;}.cls-17{letter-spacing:-0.06em;}.cls-18{letter-spacing:-0.03em;}.cls-20,.cls-21,.cls-31{fill:none;}.cls-21{stroke:#fff;stroke-width:2px;}.cls-22{fill:#f2a499;}.cls-23{fill:#f9b384;}.cls-24{fill:#e58478;}.cls-25{fill:#748bc6;}.cls-26{fill:#142047;}.cls-27{fill:#e28a6c;}.cls-28,.cls-29{fill:#253e86;}.cls-28,.cls-32{opacity:0.4;}.cls-30{fill:#eeb023;}.cls-31{stroke:#e28a6c;stroke-miterlimit:10;stroke-width:2.5px;}.cls-32{fill:#ed6e57;}.cls-33{fill:#83cba6;}</style></defs><path id="Path_3677" data-name="Path 3677" class="cls-1" d="M119,95.08C151.65,45,210.52,18.33,258.79,11.73A284.47,284.47,0,0,1,301.36,9.3c140.15,2,212.55,83.6,203.61,122.89s-34.29,63.46,2.24,117.86,46.12,136,25.25,217.58S423.1,579.41,302.29,581.9,93.38,591.53,67.29,516s31-127.39,39-192.13c5-40.14-15.63-80.6-16.57-120.64C88.68,160,100.23,123.88,119,95.08Z"/><g id="Plan_Overview" data-name="Plan Overview" class="cls-2"><text class="cls-3" transform="translate(209.77 75.32)">Plan O<tspan class="cls-4" x="92.62" y="0">v</tspan><tspan class="cls-5" x="108.64" y="0">e</tspan><tspan class="cls-6" x="124.93" y="0">r</tspan><tspan class="cls-7" x="138.14" y="0">view</tspan></text></g><g id="Let_s_get_to_know_each_other" data-name="Let s get to know each other" class="cls-2"><text class="cls-8" transform="translate(176.47 114.63)">Let&apos;s get to know each other</text></g><g id="Group_5728" data-name="Group 5728"><rect id="Rectangle_2106-2" data-name="Rectangle 2106-2" class="cls-9" x="159.59" y="158.67" width="383.74" height="253.2" rx="3.93"/><path id="Rectangle_2107" data-name="Rectangle 2107" class="cls-10" d="M163.52,158.67H539.39a3.93,3.93,0,0,1,3.94,3.93V198H159.59V162.6A3.93,3.93,0,0,1,163.52,158.67Z"/><circle id="Ellipse_405" data-name="Ellipse 405" class="cls-11" cx="179.25" cy="178.33" r="3.93"/><circle id="Ellipse_406" data-name="Ellipse 406" class="cls-12" cx="194.98" cy="178.33" r="3.93"/><circle id="Ellipse_407" data-name="Ellipse 407" cx="210.7" cy="178.33" r="3.93"/><g id="Group_5729" data-name="Group 5729"><path id="Path_12489-2" data-name="Path 12489-2" class="cls-13" d="M237.44,216.86h89.64a3.93,3.93,0,0,1,3.93,3.93V388.28a3.93,3.93,0,0,1-3.93,3.93H237.44a3.93,3.93,0,0,1-3.93-3.93V220.79A3.93,3.93,0,0,1,237.44,216.86Z"/><path id="Union_6" data-name="Union 6" class="cls-10" d="M277.54,251.46H287l-4.72,4.72Zm-44,0V220.79a3.93,3.93,0,0,1,3.93-3.93h89.64a3.93,3.93,0,0,1,3.93,3.93v30.67Z"/><g id="BESPOKE_PLAN" data-name="BESPOKE PLAN" class="cls-2"><text class="cls-14" transform="translate(254.55 238.88)">BESPOKE P<tspan class="cls-15" x="41" y="0">L</tspan><tspan x="45.22" y="0">AN</tspan></text></g><g id="Remember_Me" data-name="Remember Me" class="cls-2"><text class="cls-16" transform="translate(254.74 271.12)">$10 per staff user</text></g><g id="Remember_Me-2" data-name="Remember Me-2" class="cls-2"><text class="cls-16" transform="translate(254.74 304.14)">student limit on fly $1</text></g><g id="Remember_Me-3" data-name="Remember Me-3" class="cls-2"><text class="cls-16" transform="translate(254.74 337.17)"><tspan class="cls-17">V</tspan><tspan x="3.51" y="0">ehicle management</tspan></text><text class="cls-16" transform="translate(254.74 346.6)">$250/year</text></g><g id="Remember_Me-4" data-name="Remember Me-4" class="cls-2"><text class="cls-16" transform="translate(254.74 287.63)">$10 per instructor</text></g><g id="Remember_Me-5" data-name="Remember Me-5" class="cls-2"><text class="cls-16" transform="translate(254.74 320.66)"><tspan class="cls-18">R</tspan><tspan x="3.58" y="0">eferral program $50</tspan></text></g><path id="check" d="M244.67,272.69a.46.46,0,0,1-.32-.13l-2.84-2.7a.43.43,0,0,1,0-.61l0,0a.48.48,0,0,1,.65,0l2.51,2.39,5.35-5.1a.48.48,0,0,1,.65,0,.44.44,0,0,1,0,.61l0,0L245,272.56a.51.51,0,0,1-.33.13Z"/><path id="Rectangle_1790-2" data-name="Rectangle 1790-2" class="cls-19" d="M251.59,365.48h64.48a8.65,8.65,0,0,1,8.65,8.65h0a8.65,8.65,0,0,1-8.65,8.65H251.59a8.66,8.66,0,0,1-8.65-8.65h0A8.65,8.65,0,0,1,251.59,365.48Z"/><path id="check_1_2" data-name="check 1 2" d="M244.67,289.2a.42.42,0,0,1-.32-.13l-2.84-2.7a.42.42,0,0,1,0-.6l0,0a.48.48,0,0,1,.65,0l2.51,2.4L250,283a.46.46,0,0,1,.65,0,.43.43,0,0,1,0,.6l0,0L245,289.07a.46.46,0,0,1-.33.13Z"/><path id="check_1_3" data-name="check 1 3" d="M244.67,305.71a.45.45,0,0,1-.32-.12l-2.84-2.71a.42.42,0,0,1,0-.6l0,0a.46.46,0,0,1,.65,0l2.51,2.39,5.35-5.1a.48.48,0,0,1,.65,0,.43.43,0,0,1,0,.6l0,0L245,305.59a.5.5,0,0,1-.33.12Z"/><path id="check_1_4" data-name="check 1 4" d="M244.67,322.23a.46.46,0,0,1-.32-.13l-2.84-2.71a.42.42,0,0,1,0-.6l0,0a.48.48,0,0,1,.65,0l2.51,2.39,5.35-5.1a.48.48,0,0,1,.65,0,.44.44,0,0,1,0,.61l0,0L245,322.1a.51.51,0,0,1-.33.13Z"/><path id="check_1_5" data-name="check 1 5" d="M244.67,338.74a.42.42,0,0,1-.32-.13l-2.84-2.7a.43.43,0,0,1,0-.61l0,0a.48.48,0,0,1,.65,0l2.51,2.4,5.35-5.1a.46.46,0,0,1,.65,0,.43.43,0,0,1,0,.6l0,0L245,338.61a.46.46,0,0,1-.33.13Z"/></g><g id="Group_5743" data-name="Group 5743"><path id="Path_12507-2" data-name="Path 12507-2" class="cls-10" d="M413,391.43l-12.75-21.69-24.39-4.93,16.42-23.65,16.42-23.65,18.57,13.31,18.57,13.31L429.4,367.78Z"/><path id="Path_12521-2" data-name="Path 12521-2" class="cls-10" d="M497.72,367.88l-25.43,2.85-14.92,20.7-14.82-25.19-14.82-25.18,20.18-11.78,20.18-11.77,14.81,25.18Z"/><path id="Path_12533-2" data-name="Path 12533-2" class="cls-19" d="M437.17,219.56c-4,0-8.31-3.29-12.15-2.61s-6.86,5.29-10.55,6.66-8.89-.23-12.3,1.77-4.62,7.34-7.65,9.92-8.41,2.85-11,5.93-1.87,8.48-3.86,12-6.94,5.56-8.31,9.36,1.12,8.58.42,12.59-4.62,7.6-4.62,11.69,3.95,7.79,4.62,11.69-1.76,8.85-.42,12.59,6.33,5.9,8.31,9.36,1.32,8.9,3.86,12,7.92,3.33,11,5.92,4.21,7.9,7.65,9.92,8.55.4,12.3,1.78,6.59,5.95,10.55,6.65,8.11-2.61,12.15-2.61,8.31,3.3,12.15,2.61,6.86-5.29,10.55-6.65,8.89.23,12.3-1.78,4.62-7.34,7.65-9.92,8.41-2.85,11-5.92,1.86-8.48,3.86-12,6.94-5.56,8.3-9.36-1.11-8.58-.42-12.59,4.63-7.59,4.63-11.69-4-7.79-4.63-11.69,1.77-8.84.42-12.59-6.33-5.9-8.3-9.36-1.32-8.9-3.86-12-7.93-3.34-11-5.93-4.21-7.9-7.65-9.92-8.54-.39-12.3-1.77-6.59-6-10.55-6.66S441.21,219.56,437.17,219.56Z"/><g id="Ellipse_408" data-name="Ellipse 408"><circle class="cls-20" cx="437.17" cy="286.84" r="53.47"/><circle class="cls-21" cx="437.17" cy="286.84" r="52.69"/></g><g id="Group_5742" data-name="Group 5742"><path id="Path_12790" data-name="Path 12790" class="cls-13" d="M481.63,315.24a6.92,6.92,0,0,1,.25,2.75,9.22,9.22,0,0,1-.51,2.07c-.16.4-.35.83-.58,1.32a16,16,0,0,1-.85,1.58l1.87,1.56a11.76,11.76,0,0,0,.65-1.21A10.52,10.52,0,0,0,483,322a6.93,6.93,0,0,0,.2-.75,7.13,7.13,0,0,0,.12-2.06,6.85,6.85,0,0,0-.52-2.14A6.65,6.65,0,0,0,481.63,315.24Z"/><path id="Path_12791" data-name="Path 12791" class="cls-13" d="M481.57,315.33a8.34,8.34,0,0,0-2.11-.31,10.14,10.14,0,0,0-2.13.16,6.89,6.89,0,0,0-1.16.32c-.2.07-.39.15-.59.24L475,316a7.59,7.59,0,0,0-1,.62l-.9.69L475,318.9c.47-.35.85-.7,1.24-1s.73-.55,1.07-.78a9,9,0,0,1,4.29-1.79Z"/><path id="Path_12792" data-name="Path 12792" class="cls-13" d="M490.07,310.31a7.52,7.52,0,0,0,0-1.5,7.14,7.14,0,0,0-2.37-4.43c-.15-.13-.31-.26-.48-.38a6.9,6.9,0,0,1,.9,2.71A9.32,9.32,0,0,1,488,309a18.11,18.11,0,0,1-.82,3.34,11.13,11.13,0,0,0-.45,6.81,6.39,6.39,0,0,0,.81,1.66,4.06,4.06,0,0,0,.46.55,10,10,0,0,1,0-3.13,14.81,14.81,0,0,1,.67-2.72c.08-.22.16-.43.23-.64l.21-.65c.15-.43.28-.85.42-1.28A10.31,10.31,0,0,0,490.07,310.31Z"/><path id="Path_12793" data-name="Path 12793" class="cls-13" d="M481.3,309.47c.77-1,1.37-1.8,1.93-2.42a14.57,14.57,0,0,1,1.47-1.47,10.16,10.16,0,0,1,2.43-1.4h-.6A9.54,9.54,0,0,0,483,305a6,6,0,0,0-1.05.59,7.93,7.93,0,0,0-1.05.78A16.14,16.14,0,0,0,479.4,308c-.22.29-.45.58-.68.86s-.22.29-.33.44l-.38.4a7.47,7.47,0,0,1-1.75,1.42,6.41,6.41,0,0,1-2.5.74,5.18,5.18,0,0,0,.65.26,5.49,5.49,0,0,0,1.71.25,5.69,5.69,0,0,0,2.46-.57A7.67,7.67,0,0,0,481.3,309.47Z"/><path id="Path_12794" data-name="Path 12794" class="cls-13" d="M491.89,300.1c-.05.75-.07,1.5-.05,2.25a11.57,11.57,0,0,0,.23,1.84,7.86,7.86,0,0,0,1,2.64,5.87,5.87,0,0,0,1.16,1.42,2.94,2.94,0,0,0,.57.43c-.1-.27-.2-.53-.27-.79a6.77,6.77,0,0,1-.22-.77,9.15,9.15,0,0,1-.25-1.48,18.69,18.69,0,0,1,0-2.8c0-.46.09-.91.14-1.35s.07-.9.1-1.35a10.52,10.52,0,0,0-.07-2.63,7,7,0,0,0-2.43-4.33A6.14,6.14,0,0,0,490,292a7.54,7.54,0,0,1,1.5,2.43,9.06,9.06,0,0,1,.44,2.19c0,.51.08,1,.08,1.54S492,299.4,491.89,300.1Z"/><path id="Path_12795" data-name="Path 12795" class="cls-13" d="M485.45,298.64c.24-.57.48-1.09.71-1.55s.4-.89.6-1.25a14.67,14.67,0,0,1,1.1-1.78,9.25,9.25,0,0,1,2-1.91,7.82,7.82,0,0,0-2,.67,8.84,8.84,0,0,0-1.81,1.1,8.31,8.31,0,0,0-1.73,1.82,15.58,15.58,0,0,0-1,1.93l-.45,1c-.16.33-.33.66-.52,1a6.42,6.42,0,0,1-1.37,1.78,6,6,0,0,1-1,.73,4.14,4.14,0,0,1-.59.31c-.21.09-.44.17-.68.25a4.08,4.08,0,0,0,.7.11,5.61,5.61,0,0,0,1.73-.14,5.83,5.83,0,0,0,2.25-1.13,6.59,6.59,0,0,0,1.11-1.19A7.8,7.8,0,0,0,485.45,298.64Z"/><path id="Path_12796" data-name="Path 12796" class="cls-13" d="M498.32,294.76a10.45,10.45,0,0,1-1.14-2.07,10.22,10.22,0,0,1-.65-2c-.08-.34-.12-.67-.18-1s-.12-.68-.16-1c-.09-.68-.18-1.33-.27-2h-2.43c0,.14,0,.28.05.42a15,15,0,0,0,.46,2.19,17.14,17.14,0,0,0,.63,1.74,8.85,8.85,0,0,0,1.58,2.34,6.11,6.11,0,0,0,1.45,1.12A3.85,3.85,0,0,0,498.32,294.76Z"/><path id="Path_12797" data-name="Path 12797" class="cls-13" d="M481.23,292.6a3.3,3.3,0,0,0,.7-.05,5.67,5.67,0,0,0,1.66-.54,5.37,5.37,0,0,0,1.92-1.62,5.94,5.94,0,0,0,.83-1.42,10.27,10.27,0,0,0,.57-1.91c0-.12,0-.23.07-.36h-2.43l-.35,1.59-.21.8a7.28,7.28,0,0,1-.31.77,6.63,6.63,0,0,1-.91,1.46A5.91,5.91,0,0,1,481.23,292.6Z"/><path id="Path_12799" data-name="Path 12799" class="cls-13" d="M453.26,337.2a7.32,7.32,0,0,1-3.32,3.5q-.56.32-1.29.66c-.48.22-1,.43-1.66.65l.42,2.39a10.49,10.49,0,0,0,2.5-1.15,7.06,7.06,0,0,0,3.32-5.44C453.25,337.6,453.26,337.4,453.26,337.2Z"/><path id="Path_12800" data-name="Path 12800" class="cls-13" d="M453.25,337.13s-.12-.18-.36-.49a10.28,10.28,0,0,0-1.06-1.13,9.53,9.53,0,0,0-1.73-1.23,8.59,8.59,0,0,0-2.36-.87,14.41,14.41,0,0,0-2.27-.21l.42,2.4c.59,0,1.12,0,1.6,0l1.31.07a16,16,0,0,1,2,.32A9.74,9.74,0,0,1,453.25,337.13Z"/><path id="Path_12801" data-name="Path 12801" class="cls-13" d="M462.7,338.7a7.84,7.84,0,0,0,1.54-2.35,7.41,7.41,0,0,0,.48-2.17,6.57,6.57,0,0,0-.18-2.16c-.46,1.65-.58,3.33-5.31,6.38A14,14,0,0,0,456,341a8.42,8.42,0,0,0-1.53,2.38,5.7,5.7,0,0,0-.45,1.77,2.81,2.81,0,0,0,0,.71,11,11,0,0,1,.95-1.32,9.73,9.73,0,0,1,1.05-1.08,16,16,0,0,1,2.26-1.65c.38-.25.77-.48,1.16-.71s.78-.45,1.15-.71A12.54,12.54,0,0,0,462.7,338.7Z"/><path id="Path_12802" data-name="Path 12802" class="cls-13" d="M456.69,332.29c.6-.16,1.15-.29,1.66-.39l1.37-.25a11.27,11.27,0,0,1,2.09-.17,9,9,0,0,1,2.75.49,8.39,8.39,0,0,0-1.76-1.25,9.8,9.8,0,0,0-2-.79,7.3,7.3,0,0,0-2.5-.29,11.34,11.34,0,0,0-2.17.3c-.35.09-.71.16-1.07.23s-.72.13-1.09.18a6.54,6.54,0,0,1-2.25-.05,5.34,5.34,0,0,1-1.18-.35,6.84,6.84,0,0,1-1.2-.7,4.54,4.54,0,0,0,.32.62,6,6,0,0,0,1.15,1.32,5.55,5.55,0,0,0,2.25,1.12A7.91,7.91,0,0,0,456.69,332.29Z"/><path id="Path_12803" data-name="Path 12803" class="cls-13" d="M470.58,331.73a14.09,14.09,0,0,0-1.48,1.7,11.31,11.31,0,0,0-1,1.53,8.14,8.14,0,0,0-.62,1.42,7.79,7.79,0,0,0-.32,1.24,6.31,6.31,0,0,0,0,1.84,3.17,3.17,0,0,0,.17.69,10.9,10.9,0,0,1,1.38-2.8,15.31,15.31,0,0,1,1.82-2.12c.64-.67,1.3-1.28,1.92-1.9a13.58,13.58,0,0,0,1.63-2.08,7.13,7.13,0,0,0,.93-4.88,6.51,6.51,0,0,0-.68-2.05,11.56,11.56,0,0,1,0,1.31,5,5,0,0,1-.36,1.52,10.94,10.94,0,0,1-1.06,2c-.26.38-.58.78-.94,1.22A15.5,15.5,0,0,1,470.58,331.73Z"/><path id="Path_12804" data-name="Path 12804" class="cls-13" d="M466.73,326.4c.57-.25,1.06-.54,1.53-.75s.89-.39,1.29-.55a11.12,11.12,0,0,1,2-.66,9.33,9.33,0,0,1,1.49-.18c.44,0,.86,0,1.3,0a8.1,8.1,0,0,0-2-.79,8.65,8.65,0,0,0-4.6,0,10.75,10.75,0,0,0-2,.81c-.67.3-1.33.62-2,.9a8,8,0,0,1-2.21.47,6.07,6.07,0,0,1-2.56-.47,4.5,4.5,0,0,0,.46.52,5.6,5.6,0,0,0,1.41,1,5.34,5.34,0,0,0,2.45.57,6.84,6.84,0,0,0,1.63-.17A10.22,10.22,0,0,0,466.73,326.4Z"/><path id="Path_12805" data-name="Path 12805" class="cls-13" d="M478.45,331.53a11.15,11.15,0,0,1,1.27-4.29c.31-.62.69-1.18,1-1.75l1.06-1.7L480,322.22l-.22.36a15.58,15.58,0,0,0-1.05,2,10.66,10.66,0,0,0-.64,1.74,8.23,8.23,0,0,0-.3,2.79,5.8,5.8,0,0,0,.39,1.8A4.78,4.78,0,0,0,478.45,331.53Z"/><path id="Path_12806" data-name="Path 12806" class="cls-13" d="M467.46,319.67a4.49,4.49,0,0,0,.57.4,5.5,5.5,0,0,0,1.61.65,5.37,5.37,0,0,0,2.52,0,7.07,7.07,0,0,0,1.54-.55,8.28,8.28,0,0,0,1.65-1.09l.29-.24-1.86-1.56-1.28,1a8.8,8.8,0,0,1-1.41.85A5.92,5.92,0,0,1,467.46,319.67Z"/><path id="Path_12808" data-name="Path 12808" class="cls-13" d="M417,335.47a7.52,7.52,0,0,1-2.67.72,7.69,7.69,0,0,1-1,0c-.35,0-.73-.09-1.15-.16s-.9-.19-1.42-.32-1.07-.35-1.69-.57l-1.22,2.1c.44.16.87.31,1.31.44a7.76,7.76,0,0,0,1.34.27,7.05,7.05,0,0,0,4.84-1.06A6.47,6.47,0,0,0,417,335.47Z"/><path id="Path_12809" data-name="Path 12809" class="cls-13" d="M417,335.41a9.14,9.14,0,0,0-1.83-6.39c-.25-.29-.51-.58-.78-.85l-.83-.77-1.22,2.1c.45.38.84.75,1.2,1.07s.68.61,1,.89a10.25,10.25,0,0,1,.73.81c.21.26.41.48.57.7A9.89,9.89,0,0,1,417,335.41Z"/><path id="Path_12810" data-name="Path 12810" class="cls-13" d="M423.31,342.88a7.68,7.68,0,0,0,2.7-.81,7.33,7.33,0,0,0,1.77-1.36A6.37,6.37,0,0,0,429,339c-1.41,1-2.57,2.17-8.16,1.46-3.25-.49-5.39,0-6.78.75a5.94,5.94,0,0,0-1.5,1.07,4.69,4.69,0,0,0-.46.54,10.85,10.85,0,0,1,1.59-.39,10.59,10.59,0,0,1,1.5-.17,13.28,13.28,0,0,1,1.41,0c.46.06.93.09,1.38.15A22,22,0,0,0,423.31,342.88Z"/><path id="Path_12811" data-name="Path 12811" class="cls-13" d="M422.67,334.07a21.26,21.26,0,0,1,4.43,2.68,8.75,8.75,0,0,1,1.8,2.13,8.41,8.41,0,0,0-.55-2.08,9.21,9.21,0,0,0-1-1.86,7.32,7.32,0,0,0-1.72-1.83c-1.17-.94-2.54-1.43-3.78-2.25a7,7,0,0,1-.89-.65,6.35,6.35,0,0,1-.81-.83,6.18,6.18,0,0,1-.67-1A6.68,6.68,0,0,1,419,327a4.26,4.26,0,0,0-.15.69,5.77,5.77,0,0,0,0,1.76A6.58,6.58,0,0,0,422.67,334.07Z"/><path id="Path_12814" data-name="Path 12814" class="cls-13" d="M440.05,348.18a10.52,10.52,0,0,1,1.83-1.5,13.48,13.48,0,0,1,1.89-1c1.27-.55,2.58-.84,3.82-1.31l-.42-2.39-.39.13a22.16,22.16,0,0,0-2.09.83,11.23,11.23,0,0,0-1.6.95,7.8,7.8,0,0,0-2,1.93,6.39,6.39,0,0,0-.85,1.64A3.84,3.84,0,0,0,440.05,348.18Z"/><path id="Path_12815" data-name="Path 12815" class="cls-13" d="M439.3,331a3.87,3.87,0,0,0,.17.67,5.51,5.51,0,0,0,.82,1.53,5.82,5.82,0,0,0,1.93,1.63,7,7,0,0,0,1.53.55,7.24,7.24,0,0,0,2,.24h.37l-.42-2.4a14.2,14.2,0,0,1-3.25-.29A6.3,6.3,0,0,1,439.3,331Z"/><path id="Path_12817" data-name="Path 12817" class="cls-13" d="M390.51,311.24c-.41-.12-.82-.25-1.22-.41a5.21,5.21,0,0,1-1.3-.74,10.71,10.71,0,0,1-1.53-1.48,22,22,0,0,1-1.81-2.67l-2.28.82a12.59,12.59,0,0,0,1.57,2.25,7.37,7.37,0,0,0,2.27,1.68,6.66,6.66,0,0,0,1.1.41,7.21,7.21,0,0,0,1,.2A6.59,6.59,0,0,0,390.51,311.24Z"/><path id="Path_12818" data-name="Path 12818" class="cls-13" d="M390.57,311.24a8.34,8.34,0,0,0,1.33-1.68q.25-.42.48-.87a10.36,10.36,0,0,0,.43-1,7.75,7.75,0,0,0,.44-2.48,10.68,10.68,0,0,0-.2-2.26l-2.29.83a28.3,28.3,0,0,1,.41,2.89,10.9,10.9,0,0,1,0,2A8.46,8.46,0,0,1,391,310C390.84,310.45,390.7,310.84,390.57,311.24Z"/><path id="Path_12819" data-name="Path 12819" class="cls-13" d="M390.71,320.79a7.07,7.07,0,0,0,6.9.66,7,7,0,0,1-2.8-.58,13.7,13.7,0,0,1-4.39-3.54,17,17,0,0,0-1.6-1.58,10.05,10.05,0,0,0-1.49-1.1c-.24-.15-.47-.28-.7-.4s-.45-.22-.67-.31a6.56,6.56,0,0,0-1.21-.39,5.77,5.77,0,0,0-1.85-.14,3.45,3.45,0,0,0-.7.13,9.73,9.73,0,0,1,2.71,1.55,13.73,13.73,0,0,1,2,1.93c.62.7,1.2,1.36,1.8,2a9.27,9.27,0,0,0,.94.94A11.46,11.46,0,0,0,390.71,320.79Z"/><path id="Path_12820" data-name="Path 12820" class="cls-13" d="M396,313.78a22.85,22.85,0,0,1,1.67,4.9,10,10,0,0,1,0,2.79,8.11,8.11,0,0,0,.91-1.93,10,10,0,0,0,.45-2.09,8.15,8.15,0,0,0-.45-3.56c-.12-.35-.25-.69-.38-1-.26-.68-.57-1.34-.78-2.05a8,8,0,0,1-.36-2.23,6.68,6.68,0,0,1,.62-2.53,4.53,4.53,0,0,0-.55.43,5.63,5.63,0,0,0-1.08,1.35,6.42,6.42,0,0,0-.47,1.08,4.64,4.64,0,0,0-.17.64c0,.23-.07.47-.09.7a9,9,0,0,0,.09,1.64A8.45,8.45,0,0,0,396,313.78Z"/><path id="Path_12821" data-name="Path 12821" class="cls-13" d="M399,326.87c-.34-.23-.67-.45-1-.63s-.62-.38-.92-.53a9.88,9.88,0,0,0-1.71-.73,7.91,7.91,0,0,0-2.77-.47,5.92,5.92,0,0,0-1.82.29,3.85,3.85,0,0,0-.66.28,10.15,10.15,0,0,1,3,.88c.43.21.86.43,1.26.66s.78.49,1.16.75c.73.55,1.48,1.06,2.21,1.56a10.44,10.44,0,0,0,2.32,1.26,8.07,8.07,0,0,0,1.44.39,6.7,6.7,0,0,0,1.34.08,7.29,7.29,0,0,0,2.17-.39,6.78,6.78,0,0,0,1.41-.68,4.2,4.2,0,0,0,.51-.35,6.89,6.89,0,0,1-2.86.08,8.4,8.4,0,0,1-2.12-.71c-.41-.19-.87-.43-1.37-.71S399.58,327.27,399,326.87Z"/><path id="Path_12822" data-name="Path 12822" class="cls-13" d="M402.85,322.66c.37.5.68,1,1,1.39s.55.8.78,1.16a14.09,14.09,0,0,1,1,1.84,10.17,10.17,0,0,1,.64,2.72,5.58,5.58,0,0,0,.18-.58,10.83,10.83,0,0,0,.26-1.51,9.49,9.49,0,0,0,0-2.13,6.92,6.92,0,0,0-.26-1.18,7,7,0,0,0-.45-1.23,15.76,15.76,0,0,0-1.15-1.88c-.44-.58-.85-1.19-1.23-1.81-.18-.33-.35-.66-.5-1a4.81,4.81,0,0,1-.36-1.09,6.16,6.16,0,0,1,0-2.6,3.84,3.84,0,0,0-.44.54,5.38,5.38,0,0,0-.74,1.57,5.65,5.65,0,0,0-.15,2.52,7.78,7.78,0,0,0,.47,1.56,8.32,8.32,0,0,0,.41.85A8.7,8.7,0,0,0,402.85,322.66Z"/><path id="Path_12823" data-name="Path 12823" class="cls-13" d="M400,335.28a11,11,0,0,1,2.37,0,11.28,11.28,0,0,1,2.07.47c1.33.39,2.52,1,3.77,1.45l1.22-2.1L409,335a20.45,20.45,0,0,0-2.13-.71A12.49,12.49,0,0,0,405,334a7.82,7.82,0,0,0-2.81.18,6.19,6.19,0,0,0-1.7.71A3.8,3.8,0,0,0,400,335.28Z"/><path id="Path_12824" data-name="Path 12824" class="cls-13" d="M410.17,321.6a4.12,4.12,0,0,0-.3.64,5.29,5.29,0,0,0-.37,1.7,5.69,5.69,0,0,0,.44,2.48,6.48,6.48,0,0,0,.82,1.42,7.72,7.72,0,0,0,1.35,1.45l.29.23,1.21-2.1a14.84,14.84,0,0,1-2.3-2.32,6.34,6.34,0,0,1-.79-1.53A5.76,5.76,0,0,1,410.17,321.6Z"/><path id="Path_12826" data-name="Path 12826" class="cls-13" d="M385.73,275.32a7.32,7.32,0,0,1-1.2-2.5,10.81,10.81,0,0,1-.21-2.12,19.32,19.32,0,0,1,.34-3.21l-2.29-.83a14.75,14.75,0,0,0-.25,2.73A7.21,7.21,0,0,0,384,274,6.71,6.71,0,0,0,385.73,275.32Z"/><path id="Path_12827" data-name="Path 12827" class="cls-13" d="M385.79,275.28a8.43,8.43,0,0,0,2.1-.43,8.52,8.52,0,0,0,3.85-2.49,11,11,0,0,0,1.31-1.87l-2.29-.83a26,26,0,0,1-1.54,2.47,10.38,10.38,0,0,1-1.25,1.54A9.54,9.54,0,0,1,385.79,275.28Z"/><path id="Path_12828" data-name="Path 12828" class="cls-13" d="M379.55,282.75a8,8,0,0,0,.55,1.4,7.42,7.42,0,0,0,.73,1.12,7.7,7.7,0,0,0,1.62,1.5,7.25,7.25,0,0,0,1.38.72,3.93,3.93,0,0,0,.58.19,6.64,6.64,0,0,1-1.76-2.24,8.25,8.25,0,0,1-.7-2.12,17.82,17.82,0,0,1-.39-3.41,21,21,0,0,0-.21-2.24,10.35,10.35,0,0,0-.43-1.81,8.83,8.83,0,0,0-1.28-2.5,6.26,6.26,0,0,0-1.33-1.29,2.91,2.91,0,0,0-.62-.35,9.84,9.84,0,0,1,1.08,2.93,13.11,13.11,0,0,1,.31,2.79A22.64,22.64,0,0,0,379.55,282.75Z"/><path id="Path_12829" data-name="Path 12829" class="cls-13" d="M388.15,280.64c-.4,1.19-.66,2.15-1,2.94a14.73,14.73,0,0,1-.88,1.89,10.23,10.23,0,0,1-1.8,2.14q.28-.09.57-.21a8.37,8.37,0,0,0,1.37-.69,8.94,8.94,0,0,0,1.69-1.3,8.5,8.5,0,0,0,.78-.91,8.66,8.66,0,0,0,.72-1.1c.68-1.33,1-2.76,1.53-4.12a8.18,8.18,0,0,1,1.16-1.93,6.49,6.49,0,0,1,2.1-1.54,4,4,0,0,0-.69,0,5.84,5.84,0,0,0-1.7.34,5.4,5.4,0,0,0-2.1,1.39,7.32,7.32,0,0,0-1,1.3A8.16,8.16,0,0,0,388.15,280.64Z"/><path id="Path_12830" data-name="Path 12830" class="cls-13" d="M381.46,292.92a17.16,17.16,0,0,0-.71-2.13,12.92,12.92,0,0,0-.84-1.66,8,8,0,0,0-1.82-2.15,6.8,6.8,0,0,0-1.58-.94,4.07,4.07,0,0,0-.68-.2,11.36,11.36,0,0,1,1.74,2.6,11.07,11.07,0,0,1,.51,1.31c.16.44.3.89.42,1.32.24.88.42,1.77.69,2.62a11.85,11.85,0,0,0,1,2.46A7.83,7.83,0,0,0,382,298.3a7.27,7.27,0,0,0,1.94,1.09,6.86,6.86,0,0,0,2.11.45C384.57,298.93,383,298.32,381.46,292.92Z"/><path id="Path_12831" data-name="Path 12831" class="cls-13" d="M388.05,292.19a20.75,20.75,0,0,1-.71,5.14,9,9,0,0,1-1.26,2.49,9.22,9.22,0,0,0,3-3,7.4,7.4,0,0,0,1-2.3,12.4,12.4,0,0,0,.34-2.17,17.66,17.66,0,0,1,.23-2.19c.07-.37.14-.73.24-1.09a7,7,0,0,1,.45-1.06,5.83,5.83,0,0,1,1.69-2,5.27,5.27,0,0,0-2.27.87,5.81,5.81,0,0,0-1.73,1.83,6.43,6.43,0,0,0-.65,1.5A8.79,8.79,0,0,0,388.05,292.19Z"/><path id="Path_12832" data-name="Path 12832" class="cls-13" d="M377.35,300.12a9.75,9.75,0,0,1,1.77,1.56,11.24,11.24,0,0,1,1.31,1.69c.18.29.35.59.51.88s.33.6.5.89l.93,1.77,2.29-.83-.2-.37a15.52,15.52,0,0,0-1.19-1.9,11.65,11.65,0,0,0-1.18-1.43,8.75,8.75,0,0,0-1.19-1,7.42,7.42,0,0,0-1.08-.66,5.83,5.83,0,0,0-1.76-.56A3.35,3.35,0,0,0,377.35,300.12Z"/><path id="Path_12833" data-name="Path 12833" class="cls-13" d="M394.16,296.46a3.6,3.6,0,0,0-.63.29,5.5,5.5,0,0,0-1.38,1.07,5.73,5.73,0,0,0-.71.93,6.08,6.08,0,0,0-.55,1.25,7.26,7.26,0,0,0-.3,1.61,11,11,0,0,0,.12,2c0,.12,0,.24.05.36l2.29-.83-.21-1.61c0-.27-.06-.54-.07-.81a7.68,7.68,0,0,1,0-.83,6.43,6.43,0,0,1,.35-1.69A6.76,6.76,0,0,1,394.16,296.46Z"/><path id="Path_12835" data-name="Path 12835" class="cls-13" d="M405.05,245.13a7.06,7.06,0,0,1,.71-2.67,8.19,8.19,0,0,1,1.19-1.77,18.11,18.11,0,0,1,2.32-2.23l-1.21-2.1c-.36.28-.71.58-1,.89a8.83,8.83,0,0,0-.9,1,8,8,0,0,0-.8,1.27,7.32,7.32,0,0,0-.7,3.45,7.87,7.87,0,0,0,.24,1.53C404.92,244.74,405,244.94,405.05,245.13Z"/><path id="Path_12836" data-name="Path 12836" class="cls-13" d="M405.05,245.18l.51.34a10.39,10.39,0,0,0,1.38.68,8.23,8.23,0,0,0,2.05.57,9.71,9.71,0,0,0,1.2.1,8.16,8.16,0,0,0,1.31-.09,8.66,8.66,0,0,0,1.12-.26c.36-.1.73-.21,1.09-.33l-1.22-2.11c-1.12.37-2,.7-2.78.9a16.21,16.21,0,0,1-1.94.38A10.36,10.36,0,0,1,405.05,245.18Z"/><path id="Path_12837" data-name="Path 12837" class="cls-13" d="M395.66,247a7.08,7.08,0,0,0-.36,4.94,8.14,8.14,0,0,0,.57,1.44,5.69,5.69,0,0,0,.33.52,7.2,7.2,0,0,1,.1-2.85,8.15,8.15,0,0,1,.83-2.08,14.62,14.62,0,0,1,.77-1.32c.32-.47.7-1,1.13-1.54a19.49,19.49,0,0,0,1.28-1.84,14.42,14.42,0,0,0,.83-1.67,8.34,8.34,0,0,0,.62-2.74,5.94,5.94,0,0,0-.19-1.83,3.06,3.06,0,0,0-.24-.66,11,11,0,0,1-1.05,2.94,11.37,11.37,0,0,1-.74,1.2c-.26.4-.53.77-.81,1.13l-.86,1c-.28.35-.56.7-.83,1.06A11,11,0,0,0,395.66,247Z"/><path id="Path_12838" data-name="Path 12838" class="cls-13" d="M403.47,250.31c-.52.35-1,.65-1.45.91s-.82.52-1.19.71a14.25,14.25,0,0,1-1.9.88,8.93,8.93,0,0,1-2.76.47,3.54,3.54,0,0,0,.57.22,9.47,9.47,0,0,0,1.51.35,8.69,8.69,0,0,0,4.57-.49,13.42,13.42,0,0,0,1.94-1l.92-.58c.32-.19.64-.37,1-.54s.66-.32,1-.46a7.3,7.3,0,0,1,1.12-.27,5.72,5.72,0,0,1,2.6.17,3.87,3.87,0,0,0-.52-.47,5.32,5.32,0,0,0-1.53-.84,5.74,5.74,0,0,0-2.5-.29,6.62,6.62,0,0,0-1.58.38A7.8,7.8,0,0,0,403.47,250.31Z"/><path id="Path_12839" data-name="Path 12839" class="cls-13" d="M390.86,255.68A10.75,10.75,0,0,0,392.1,249a6,6,0,0,0-.6-1.74,3.35,3.35,0,0,0-.39-.59,9.89,9.89,0,0,1-.08,1.63,9.39,9.39,0,0,1-.27,1.48,16.43,16.43,0,0,1-1,2.61,23.17,23.17,0,0,0-2,5,7.81,7.81,0,0,0,0,2.81,7.41,7.41,0,0,0,.8,2.08,6.42,6.42,0,0,0,1.32,1.7C389.4,262.29,388.58,260.82,390.86,255.68Z"/><path id="Path_12840" data-name="Path 12840" class="cls-13" d="M396.38,259.12a21.42,21.42,0,0,1-3.84,3.47A9.37,9.37,0,0,1,390,263.7a8.69,8.69,0,0,0,2.16.07,8.54,8.54,0,0,0,2.07-.41,7.7,7.7,0,0,0,2.26-1.12c1.23-.85,2.09-2,3.23-3a6.35,6.35,0,0,1,1.91-1.2,6.08,6.08,0,0,1,1.17-.36,7.27,7.27,0,0,1,1.4-.08,4,4,0,0,0-.61-.33,5.6,5.6,0,0,0-1.69-.47A6.56,6.56,0,0,0,396.38,259.12Z"/><path id="Path_12841" data-name="Path 12841" class="cls-13" d="M382.89,258.48a10.19,10.19,0,0,1,.36,2.33,10.79,10.79,0,0,1-.09,2.13c-.05.35-.11.68-.18,1s-.12.67-.19,1c-.13.66-.3,1.31-.42,2l2.29.83c0-.14,0-.27.07-.41a12.89,12.89,0,0,0,.32-2.23,12.56,12.56,0,0,0,0-1.84,8.67,8.67,0,0,0-.67-2.74,5.72,5.72,0,0,0-1-1.55A3.43,3.43,0,0,0,382.89,258.48Z"/><path id="Path_12842" data-name="Path 12842" class="cls-13" d="M398.18,266.23a3.19,3.19,0,0,0-.67-.19,5.71,5.71,0,0,0-1.75-.07,5.35,5.35,0,0,0-2.35.86,5.77,5.77,0,0,0-1.26,1.05,9.69,9.69,0,0,0-1.19,1.59c-.07.11-.14.21-.19.31l2.28.83c.29-.45.58-.92.88-1.37a7.85,7.85,0,0,1,.47-.66A5.41,5.41,0,0,1,395,268a7,7,0,0,1,1.35-1.07A6.28,6.28,0,0,1,398.18,266.23Z"/><path id="Path_12844" data-name="Path 12844" class="cls-13" d="M439.66,234a7.29,7.29,0,0,1,2.26-1.59,8.16,8.16,0,0,1,.9-.33,9.31,9.31,0,0,1,1.14-.25,16.51,16.51,0,0,1,3.22-.22l.42-2.4c-.46,0-.92,0-1.38,0a10.24,10.24,0,0,0-1.35.21,7.06,7.06,0,0,0-2.59,1.13,7.49,7.49,0,0,0-1.59,1.54A6.33,6.33,0,0,0,439.66,234Z"/><path id="Path_12845" data-name="Path 12845" class="cls-13" d="M439.68,234.05a8.86,8.86,0,0,0,.79,2,8.76,8.76,0,0,0,1.2,1.75,8.57,8.57,0,0,0,1.93,1.62,6.07,6.07,0,0,0,1,.51c.34.17.69.32,1,.46l.42-2.4c-1.09-.44-2-.75-2.7-1.1-.36-.17-.68-.34-1-.51a5.84,5.84,0,0,1-.76-.45A10.33,10.33,0,0,1,439.68,234.05Z"/><path id="Path_12846" data-name="Path 12846" class="cls-13" d="M431.31,229.22a7.18,7.18,0,0,0-3.46,3.56,6.63,6.63,0,0,0-.57,2.09,7.34,7.34,0,0,1,1.91-2.13,10.69,10.69,0,0,1,2-1.06,21.94,21.94,0,0,1,3.3-1c3.22-.64,5-1.84,6.11-3a5.61,5.61,0,0,0,1-1.51,3.71,3.71,0,0,0,.24-.66,11,11,0,0,1-1.35.91,9.42,9.42,0,0,1-1.35.67,17.86,17.86,0,0,1-2.68.78c-.44.1-.89.18-1.33.26s-.89.15-1.32.27A12.84,12.84,0,0,0,431.31,229.22Z"/><path id="Path_12847" data-name="Path 12847" class="cls-13" d="M434.81,237.34c-1.24-.12-2.25-.31-3.07-.46a10.15,10.15,0,0,1-2-.55,9.4,9.4,0,0,1-2.42-1.39,8.25,8.25,0,0,0,1.23,1.77,8.61,8.61,0,0,0,3.81,2.54,9.81,9.81,0,0,0,2.15.46c.35,0,.72.11,1.08.16l1.08.2a6.67,6.67,0,0,1,2.12.82,5.8,5.8,0,0,1,1,.73,6.68,6.68,0,0,1,.91,1.07,4.24,4.24,0,0,0-.11-.7,5.66,5.66,0,0,0-.62-1.63A6.65,6.65,0,0,0,434.81,237.34Z"/><path id="Path_12848" data-name="Path 12848" class="cls-13" d="M421.6,233a18.7,18.7,0,0,0,2-1.08,10.69,10.69,0,0,0,1.5-1.1,8.85,8.85,0,0,0,1.79-2.16,6,6,0,0,0,.66-1.73,3.36,3.36,0,0,0,.08-.71,10,10,0,0,1-2.26,2.15,13.32,13.32,0,0,1-2.44,1.38l-2.46,1.14a13.18,13.18,0,0,0-1.17.63,9.89,9.89,0,0,0-1.07.76,7.16,7.16,0,0,0-2.55,4.25,6.87,6.87,0,0,0-.07,2.17c.16-.41.3-.81.5-1.23a5.63,5.63,0,0,1,.86-1.28A13.4,13.4,0,0,1,421.6,233Z"/><path id="Path_12849" data-name="Path 12849" class="cls-13" d="M423.42,239.32a23.55,23.55,0,0,1-5.17.2,8.27,8.27,0,0,1-1.47-.35c-.42-.14-.81-.3-1.21-.46a8.25,8.25,0,0,0,1.59,1.42,9.71,9.71,0,0,0,1.86,1,9,9,0,0,0,2.45.59,8.08,8.08,0,0,0,1.1,0l1.09-.08c.73,0,1.45-.15,2.18-.15a8,8,0,0,1,2.24.29,6.56,6.56,0,0,1,2.24,1.34,3,3,0,0,0-.25-.65,5.59,5.59,0,0,0-1-1.43A5.51,5.51,0,0,0,427,239.7a7.16,7.16,0,0,0-1.58-.39A8.2,8.2,0,0,0,423.42,239.32Z"/><path id="Path_12850" data-name="Path 12850" class="cls-13" d="M413.75,230.2a10.49,10.49,0,0,1-1.22,2,14.26,14.26,0,0,1-1.44,1.57,17.75,17.75,0,0,1-1.57,1.3c-.54.4-1,.83-1.57,1.24l1.22,2.11.32-.27a11.47,11.47,0,0,0,.89-.77c.28-.24.54-.49.78-.73a10.07,10.07,0,0,0,1.18-1.43,7.77,7.77,0,0,0,1.25-2.51,6.37,6.37,0,0,0,.24-1.84A3.36,3.36,0,0,0,413.75,230.2Z"/><path id="Path_12851" data-name="Path 12851" class="cls-13" d="M420.24,246.1a3.32,3.32,0,0,0-.4-.58,5.45,5.45,0,0,0-1.28-1.16,5.8,5.8,0,0,0-2.37-.86,6.84,6.84,0,0,0-1.63,0c-.3,0-.61.08-.93.14a8.94,8.94,0,0,0-1,.32l-.35.12,1.22,2.1c.52-.15,1-.36,1.54-.5a11.22,11.22,0,0,1,1.61-.33,5.9,5.9,0,0,1,1.73.07A6.09,6.09,0,0,1,420.24,246.1Z"/><path id="Path_12853" data-name="Path 12853" class="cls-13" d="M472.64,247.74c1.67,0,3.26-.37,7.3,3l1.87-1.56a11.75,11.75,0,0,0-2.24-1.58,7.13,7.13,0,0,0-4.92-.65A6.69,6.69,0,0,0,472.64,247.74Z"/><path id="Path_12854" data-name="Path 12854" class="cls-13" d="M473.24,247.73a9.49,9.49,0,0,0-.88,4.15,7.79,7.79,0,0,0,.43,2.48,13,13,0,0,0,1,2.07l1.87-1.56a19.72,19.72,0,0,1-2.07-4.44A9.46,9.46,0,0,1,473.24,247.73Z"/><path id="Path_12855" data-name="Path 12855" class="cls-13" d="M469.63,239.17a7.2,7.2,0,0,0-4.94.51,6.62,6.62,0,0,0-1.78,1.24,7.21,7.21,0,0,1,2.84-.42,11.09,11.09,0,0,1,2.19.46,13.22,13.22,0,0,1,1.43.56c.52.23,1.1.48,1.71.82a14.44,14.44,0,0,0,2,.94,13.88,13.88,0,0,0,1.77.54,8,8,0,0,0,1.54.18,6.75,6.75,0,0,0,1.27,0,6.4,6.4,0,0,0,1.77-.5,3.46,3.46,0,0,0,.62-.36,12.08,12.08,0,0,1-5.64-1.66c-.82-.42-1.58-.89-2.37-1.3A14.69,14.69,0,0,0,469.63,239.17Z"/><path id="Path_12856" data-name="Path 12856" class="cls-13" d="M467.39,247.63c-.42-.47-.82-.86-1.15-1.25l-.9-1.07a10.66,10.66,0,0,1-1.19-1.71,9.55,9.55,0,0,1-1-2.63,8.18,8.18,0,0,0-.2,2.14,8.61,8.61,0,0,0,1.29,4.41,9.72,9.72,0,0,0,1.35,1.73c.48.55,1,1.09,1.43,1.67a6.14,6.14,0,0,1,1.36,4.57,3.3,3.3,0,0,0,.38-.59,5.65,5.65,0,0,0,.64-2.82,6.17,6.17,0,0,0-.24-1.35,7.38,7.38,0,0,0-.62-1.51A10.8,10.8,0,0,0,467.39,247.63Z"/><path id="Path_12857" data-name="Path 12857" class="cls-13" d="M459.91,235.53a16.16,16.16,0,0,0,2.2.44,9.54,9.54,0,0,0,1.85.12,9,9,0,0,0,2.76-.5,6.27,6.27,0,0,0,1.62-.9,3.5,3.5,0,0,0,.52-.5,9.93,9.93,0,0,1-3.12.19,12.91,12.91,0,0,1-2.76-.51c-.88-.22-1.75-.48-2.61-.71a12.08,12.08,0,0,0-2.61-.37c-.27,0-.53,0-.77,0s-.5.07-.73.12a7,7,0,0,0-1.28.37,6.61,6.61,0,0,0-1.9,1.12,6.77,6.77,0,0,0-1.45,1.62,6.9,6.9,0,0,1,2.66-1.05,9.8,9.8,0,0,1,2.23-.07q.69.06,1.53.21l.89.16C459.25,235.34,459.56,235.44,459.91,235.53Z"/><path id="Path_12858" data-name="Path 12858" class="cls-13" d="M457.41,241.6c-.26-.17-.5-.35-.74-.5l-.67-.45c-.42-.29-.79-.57-1.12-.83a12.11,12.11,0,0,1-1.56-1.39,11,11,0,0,1-1.54-2.33,8.42,8.42,0,0,0,.32,2.11,9.88,9.88,0,0,0,.76,2,7.72,7.72,0,0,0,.64,1l.4.5.45.5a12.54,12.54,0,0,0,1.72,1.36c.59.43,1.2.83,1.78,1.29a7.75,7.75,0,0,1,1.51,1.67,6.19,6.19,0,0,1,.86,2.46,4,4,0,0,0,.23-.66,5.62,5.62,0,0,0,.16-1.73,5.43,5.43,0,0,0-.71-2.42,8.3,8.3,0,0,0-1-1.32A9.75,9.75,0,0,0,457.41,241.6Z"/><path id="Path_12859" data-name="Path 12859" class="cls-13" d="M455.76,228.2a10,10,0,0,1-2.24.79,15,15,0,0,1-2.11.27,17.55,17.55,0,0,1-2.05,0c-.67,0-1.34,0-2-.05l-.42,2.4h.41a11.42,11.42,0,0,0,1.18,0c.37,0,.73,0,1.07,0a10.35,10.35,0,0,0,1.83-.34,8.17,8.17,0,0,0,2.57-1.12,6.08,6.08,0,0,0,1.37-1.26A2.65,2.65,0,0,0,455.76,228.2Z"/><path id="Path_12860" data-name="Path 12860" class="cls-13" d="M450.74,244.64a4,4,0,0,0,.06-.69,5.6,5.6,0,0,0-1.5-3.9,7.9,7.9,0,0,0-1.25-1.05q-.39-.25-.81-.48c-.3-.14-.62-.27-1-.4l-.35-.13-.42,2.4c.5.2,1,.36,1.51.59a11.17,11.17,0,0,1,1.44.79,5.13,5.13,0,0,1,1.29,1.17A6.58,6.58,0,0,1,450.74,244.64Z"/><path id="Path_12862" data-name="Path 12862" class="cls-13" d="M489.81,279.91c.35.25.68.52,1,.8s.34.33.5.5a6,6,0,0,1,.47.65,10.18,10.18,0,0,1,.92,1.91,22.41,22.41,0,0,1,.79,3.13h2.43a14.17,14.17,0,0,0-.7-2.65,7.57,7.57,0,0,0-1.57-2.35,6.94,6.94,0,0,0-1.78-1.31A6.57,6.57,0,0,0,489.81,279.91Z"/><path id="Path_12863" data-name="Path 12863" class="cls-13" d="M489.74,279.91a8.85,8.85,0,0,0-1.83,1.13,10.62,10.62,0,0,0-1.52,1.48,8.26,8.26,0,0,0-1.26,2.17,11.14,11.14,0,0,0-.58,2.2H487a25.4,25.4,0,0,1,.62-2.85,10.28,10.28,0,0,1,.63-1.87c.11-.24.24-.46.37-.69s.24-.39.37-.57C489.22,280.57,489.48,280.25,489.74,279.91Z"/><path id="Path_12864" data-name="Path 12864" class="cls-13" d="M493,270.88a8.83,8.83,0,0,0-1-1.13,7.32,7.32,0,0,0-3.12-1.66,6.64,6.64,0,0,0-1.54-.21,4.28,4.28,0,0,0-.62,0,6.93,6.93,0,0,1,2.43,1.5c.24.24.46.48.68.74a10.22,10.22,0,0,1,.7,1c.24.4.5.83.76,1.34s.5,1.09.77,1.74a11,11,0,0,0,4,5.5,5.85,5.85,0,0,0,1.69.76,2.78,2.78,0,0,0,.7.12,10,10,0,0,1-2-2.38,15.82,15.82,0,0,1-1.24-2.51c-.31-.86-.66-1.71-1-2.53a13,13,0,0,0-.55-1.2A11.68,11.68,0,0,0,493,270.88Z"/><path id="Path_12865" data-name="Path 12865" class="cls-13" d="M485.61,275.7c0-.62,0-1.19-.06-1.71s0-1,0-1.39.05-.8.08-1.14.06-.63.11-.93a10.13,10.13,0,0,1,1-2.63,6,6,0,0,0-.47.38,11.34,11.34,0,0,0-1.06,1.13,8.64,8.64,0,0,0-1.13,1.8,9.11,9.11,0,0,0-.44,1.13,7.35,7.35,0,0,0-.36,2.38c0,.35,0,.73,0,1.09a20,20,0,0,1,0,2.19,7.6,7.6,0,0,1-.43,2.22,6.28,6.28,0,0,1-1.45,2.15,3.63,3.63,0,0,0,.66-.21,5.54,5.54,0,0,0,1.49-.9,5.68,5.68,0,0,0,1.51-2,7.69,7.69,0,0,0,.47-1.55,7.47,7.47,0,0,0,.12-.95A9,9,0,0,0,485.61,275.7Z"/><path id="Path_12866" data-name="Path 12866" class="cls-13" d="M487.58,262l.7.94c.23.3.46.57.69.82a16.35,16.35,0,0,0,1.36,1.27,8.14,8.14,0,0,0,2.45,1.39,6.53,6.53,0,0,0,1.8.35,3.35,3.35,0,0,0,.71-.05,11.44,11.44,0,0,1-2.52-1.85,11.86,11.86,0,0,1-.94-1.06c-.3-.36-.58-.73-.84-1.1s-.52-.75-.77-1.13-.52-.73-.78-1.09a10.3,10.3,0,0,0-1.76-2,7.16,7.16,0,0,0-2.44-1.4,7.44,7.44,0,0,0-2.19-.36,6.69,6.69,0,0,0-2.13.3,7.38,7.38,0,0,1,2.7.91,8.36,8.36,0,0,1,1.75,1.39,14,14,0,0,1,1.05,1.13C486.78,260.88,487.16,261.38,487.58,262Z"/><path id="Path_12867" data-name="Path 12867" class="cls-13" d="M481.63,264.83c-.19-.59-.34-1.14-.46-1.64s-.26-.94-.35-1.35a14.32,14.32,0,0,1-.29-2.07,9,9,0,0,1,.34-2.78,8.29,8.29,0,0,0-1.15,1.83,9.44,9.44,0,0,0-.68,2,8.21,8.21,0,0,0-.15,2.52,15.73,15.73,0,0,0,.43,2.15c.1.35.21.7.3,1.05s.17.72.24,1.08a10,10,0,0,1,.14,1.1,5.55,5.55,0,0,1-.06,1.15,5.77,5.77,0,0,1-.9,2.44,3.21,3.21,0,0,0,.59-.36,5.37,5.37,0,0,0,1.25-1.22,5.81,5.81,0,0,0,1-2.31,6.38,6.38,0,0,0,.09-1.63c0-.31-.05-.63-.1-.94s-.06-.34-.1-.51S481.68,265,481.63,264.83Z"/><path id="Path_12868" data-name="Path 12868" class="cls-13" d="M488.85,253.74a10.85,10.85,0,0,1-2.2-.84,10.57,10.57,0,0,1-1.8-1.15c-.53-.43-1.07-.86-1.56-1.31s-1-.93-1.48-1.34l-1.87,1.56.32.27a14.44,14.44,0,0,0,3.37,2.32,8.52,8.52,0,0,0,2.71.78,5.91,5.91,0,0,0,1.83-.08A2.81,2.81,0,0,0,488.85,253.74Z"/><path id="Path_12869" data-name="Path 12869" class="cls-13" d="M475,262.86a3.86,3.86,0,0,0,.5-.49,5.55,5.55,0,0,0,1.36-3.95,7.91,7.91,0,0,0-1.06-3.45c-.07-.1-.13-.21-.19-.31l-1.87,1.56c.28.46.52,1,.77,1.44a9.21,9.21,0,0,1,.61,1.53,6.59,6.59,0,0,1,.23,1.71A6,6,0,0,1,475,262.86Z"/></g><path id="Union_9" data-name="Union 9" class="cls-13" d="M434.48,312.49a2.7,2.7,0,1,1,2.73,2.66h0A2.68,2.68,0,0,1,434.48,312.49Zm11.85-2a2,2,0,1,1,2,2h0A2,2,0,0,1,446.33,310.5Zm-23.24,0a2,2,0,1,1,2.05,2h0a2,2,0,0,1-2-2ZM456,305a1.61,1.61,0,1,1,1.63,1.59h0A1.6,1.6,0,0,1,456,305Zm-40.77,0a1.61,1.61,0,1,1,1.63,1.59h0a1.6,1.6,0,0,1-1.61-1.59Zm2.37-9.29a.29.29,0,0,1-.29-.3v-3.32a.29.29,0,0,1,.29-.29h39.24a.29.29,0,0,1,.29.29h0v3.33a.29.29,0,0,1-.29.29Zm3.74-5.87c-.15-7.66-2.57-15.62-5.78-23.7a1.94,1.94,0,1,1-.75-3.74h0a1.94,1.94,0,0,1,2,1.94,1.86,1.86,0,0,1-.23.93h0l7.19,4.08a6.38,6.38,0,0,0,8.25-1.76l4.07-5.56h0a2,2,0,1,1,2.75-.44,2.05,2.05,0,0,1-.47.46h0l3.82,5.44a6.37,6.37,0,0,0,8.24,1.89l7.49-4.13a1.92,1.92,0,0,1-.23-.91,2,2,0,1,1,2,1.95h0a2,2,0,0,1-.84-.19c-3.58,7.89-5.78,15.81-5.68,23.74Zm14.28-15.18a8.28,8.28,0,0,0-1.19,4.31,8.13,8.13,0,0,0,1.19,4.3,7.56,7.56,0,0,0,1.6,2,7.94,7.94,0,0,0,1.61-1.95A8.37,8.37,0,0,0,440,279a8.51,8.51,0,0,0-2.8-6.28,8.23,8.23,0,0,0-1.6,2Zm14.58-.7a6.56,6.56,0,0,0-2.94,4.57,4.76,4.76,0,0,0,0,1.46,4.65,4.65,0,0,0,1.34-.61,6.76,6.76,0,0,0,2-2,6.6,6.6,0,0,0,1-2.6,5.1,5.1,0,0,0,0-1.46,4.67,4.67,0,0,0-1.34.62Zm-27.32.85a6.6,6.6,0,0,0,2.95,4.58,4.91,4.91,0,0,0,1.34.61,4.47,4.47,0,0,0,0-1.46,6.41,6.41,0,0,0-1-2.6,6.94,6.94,0,0,0-2-2,5.16,5.16,0,0,0-1.35-.62A5.1,5.1,0,0,0,422.83,274.83Z"/></g><path id="Path_13147" data-name="Path 13147" class="cls-10" d="M519.22,230.23a1,1,0,0,1,.54.94,7.19,7.19,0,0,0,1.09,3.58,5.57,5.57,0,0,0,4.74,2.6,5.07,5.07,0,0,1,.55,0,.7.7,0,0,1,.65.75.69.69,0,0,1-.7.65,14.3,14.3,0,0,0-1.73.19,5.45,5.45,0,0,0-4.11,3.65,8.5,8.5,0,0,0-.51,2.54.78.78,0,0,1-1.2.68.81.81,0,0,1-.39-.8,7.71,7.71,0,0,0-.67-2.8,5.54,5.54,0,0,0-5.17-3.43,4.07,4.07,0,0,1-.5,0,.7.7,0,0,1-.05-1.4c.38,0,.77,0,1.15-.08a5.49,5.49,0,0,0,4.74-3.76,7.09,7.09,0,0,0,.49-2.41,1,1,0,0,1,.53-.9ZM519,234.5a7.24,7.24,0,0,1-3.49,3.58,7.28,7.28,0,0,1,3.49,3.58,7.24,7.24,0,0,1,3.49-3.58,7.3,7.3,0,0,1-3.5-3.58Z"/><path id="Path_13148" data-name="Path 13148" class="cls-10" d="M364.83,243.57c0,.42-.3.69-.86.71a3.53,3.53,0,0,0-3.41,2.17,5.34,5.34,0,0,0-.45,1.84.77.77,0,0,1-.73.81h-.07a.77.77,0,0,1-.78-.83,5.39,5.39,0,0,0-.4-1.73,3.56,3.56,0,0,0-3.48-2.27c-.53,0-.83-.27-.83-.68s.32-.66.83-.69h.14a3.46,3.46,0,0,0,3.06-1.7,4.13,4.13,0,0,0,.5-1.21,5.51,5.51,0,0,0,.18-1.15.75.75,0,0,1,.76-.75h0a.76.76,0,0,1,.8.72v.05a5.22,5.22,0,0,0,.65,2.28,3.46,3.46,0,0,0,3.12,1.76C364.49,242.92,364.81,243.15,364.83,243.57Zm-3.66,0a5.21,5.21,0,0,1-1.85-1.85,5.26,5.26,0,0,1-1.83,1.86,5.07,5.07,0,0,1,1.83,1.85,5.15,5.15,0,0,1,1.85-1.86Z"/><path id="Union_10" data-name="Union 10" class="cls-10" d="M404.37,211.89a.77.77,0,0,1,0-1.09l.06-.05c.37-.39.75-.77,1.14-1.13a.79.79,0,0,1,1.35.52.85.85,0,0,1-.26.62c-.37.36-.73.74-1.11,1.09a.91.91,0,0,1-.63.29A.77.77,0,0,1,404.37,211.89Zm4.77.06c-.45-.41-.89-.84-1.31-1.29a.77.77,0,0,1,0-1,.75.75,0,0,1,1.05-.06c.46.42.9.87,1.33,1.32a.57.57,0,0,1,.15.43.75.75,0,0,1-.44.73.8.8,0,0,1-.36.09A.65.65,0,0,1,409.14,212Zm-1.41-3.8a.73.73,0,0,1,.1-.82c.43-.44.86-.88,1.31-1.29a.76.76,0,0,1,1,0,.72.72,0,0,1,.13,1,10.66,10.66,0,0,1-1.42,1.43.7.7,0,0,1-.42.13A.77.77,0,0,1,407.73,208.15Zm-2.14.23c-.43-.39-.84-.8-1.24-1.23a.71.71,0,0,1-.1-.85.74.74,0,0,1,.71-.42.7.7,0,0,1,.54.22c.39.38.79.76,1.17,1.16a.76.76,0,0,1,0,1.07l0,0a.78.78,0,0,1-1.08,0Z"/><path id="Union_11" data-name="Union 11" class="cls-10" d="M473.25,220a.74.74,0,0,1-.69-.73c0-.28,0-.55,0-.83s0-.55,0-.83a.78.78,0,0,1,.72-.76.75.75,0,0,1,.82.65,7.47,7.47,0,0,1,0,1.89.69.69,0,0,1-.72.61Zm-3.08-3.15a.75.75,0,0,1-.76-.74v0a.76.76,0,0,1,.72-.8,6.31,6.31,0,0,1,.87,0h.26a3.47,3.47,0,0,1,.56,0,.78.78,0,0,1,0,1.56h-1.61Zm5.46,0h0a7.48,7.48,0,0,1-.82,0,.78.78,0,0,1-.13-1.51h0a5.86,5.86,0,0,1,2,0,.73.73,0,0,1,.59.81.74.74,0,0,1-.72.71h-.92Zm-2.36-1.56a.76.76,0,0,1-.71-.76c0-.28,0-.55,0-.83h0c0-.28,0-.55,0-.83a.76.76,0,0,1,.75-.73.71.71,0,0,1,.78.63,7,7,0,0,1,0,1.89.73.73,0,0,1-.76.63Z"/><path id="Path_13827" data-name="Path 13827" class="cls-10" d="M194.19,329.28c0,.43-.3.69-.86.71a3.53,3.53,0,0,0-3.41,2.17,5.57,5.57,0,0,0-.44,1.84.77.77,0,0,1-.74.81h-.07c-.47,0-.74-.31-.78-.83a5.19,5.19,0,0,0-.4-1.73A3.56,3.56,0,0,0,184,330c-.54,0-.84-.27-.84-.68s.32-.66.84-.69h.13a3.47,3.47,0,0,0,3.07-1.7,4.39,4.39,0,0,0,.49-1.21,6.28,6.28,0,0,0,.19-1.15.76.76,0,0,1,.75-.75h0a.76.76,0,0,1,.8.72v.05a5.3,5.3,0,0,0,.65,2.29,3.49,3.49,0,0,0,3.12,1.75C193.85,328.63,194.18,328.86,194.19,329.28Zm-3.66,0a5.21,5.21,0,0,1-1.85-1.85,5.26,5.26,0,0,1-1.83,1.86,5.26,5.26,0,0,1,1.84,1.85,5.05,5.05,0,0,1,1.84-1.86Z"/><path id="Path_13828" data-name="Path 13828" class="cls-10" d="M211,271.9a1,1,0,0,1,.53,1,7.23,7.23,0,0,0,1.1,3.58,5.54,5.54,0,0,0,4.73,2.6,4.93,4.93,0,0,1,.55,0,.7.7,0,0,1,.66.74.72.72,0,0,1-.71.66,11.17,11.17,0,0,0-1.73.19A5.45,5.45,0,0,0,212,284.3a8.44,8.44,0,0,0-.51,2.54.77.77,0,0,1-.77.79.82.82,0,0,1-.82-.92,7.8,7.8,0,0,0-.66-2.8,5.56,5.56,0,0,0-5.18-3.42l-.5,0a.72.72,0,0,1-.72-.68.7.7,0,0,1,.68-.72c.38-.05.76,0,1.14-.08a5.48,5.48,0,0,0,4.74-3.76,7.41,7.41,0,0,0,.5-2.41,1,1,0,0,1,.52-.91Zm-.28,4.28a7.3,7.3,0,0,1-3.48,3.58,7.26,7.26,0,0,1,3.48,3.58,7.24,7.24,0,0,1,3.49-3.58,7.32,7.32,0,0,1-3.49-3.58Z"/></g><g id="Group_5725" data-name="Group 5725"><path id="Path_5232" data-name="Path 5232" class="cls-22" d="M316.77,522.66c-1.06,17.44-9.87,34.86-24.31,44.45-17.21,11.43-41.28,8.9-60.88,10.36-16.94,1.26-34,2.34-51,.54-13.89-1.48-27.9-7-34.53-20.42s-7.37-31.41-.72-45.06a43.82,43.82,0,0,1,8.29-11.6c.54-.55,1.11-1.09,1.68-1.62l1.18-1.06c.61-.52,1.24-1,1.88-1.54l.63-.49.64-.48.65-.48.5-.34c.27-.2.54-.39.82-.57a58.36,58.36,0,0,1,7.78-4.39,64,64,0,0,1,8-3.12c8.92-2.76,18.23-3.74,27.43-4.94a453.94,453.94,0,0,1,59.08-3.42c16.06,0,34.14,2.4,44.88,16.16C314.88,502.4,317.38,512.73,316.77,522.66Z"/><path id="Path_5233" data-name="Path 5233" class="cls-23" d="M283.78,493s4.14-3.88,6.33-6.13-2.59-2.32-4.95.48A6.13,6.13,0,0,0,283.78,493Z"/><path id="Path_5234" data-name="Path 5234" class="cls-24" d="M169.35,489.85a56.45,56.45,0,0,0-7.76,4.39l-.83.56-.49.35-.65.47-.64.48-.63.49c-.63.5-1.25,1-1.85,1.54h0c-.4.34-.8.7-1.18,1.05-.58.53-1.14,1.07-1.68,1.63a1.1,1.1,0,0,0,.83,1c3.23.65,4.84,3.73,7.44,5.48a7.16,7.16,0,0,0,6.39.91c-2.35,5-3.64,9.91-2.63,15.48a20,20,0,0,0,1.57,4.88c-3-2.25-5.93-7-7.12-11.92a1.29,1.29,0,0,0-2.51.61c1.48,6,5.26,11.83,9.17,14.09a8.44,8.44,0,0,0,2.82,1,20.42,20.42,0,0,0,2.6,2.74l5.79,1.62,4.72-30.5Z"/><path id="Path_5235" data-name="Path 5235" class="cls-25" d="M186.13,510.25A124.78,124.78,0,0,1,161,497.32a9.68,9.68,0,0,1-4.07-9.65l6.17-36a11.08,11.08,0,0,1,6.55-8.33,109.51,109.51,0,0,1,28.06-7.86,68.84,68.84,0,0,1,10.84.22c4,.39,13.17,3.09,19,4.9a11.26,11.26,0,0,1,7.17,6.7c2.44,6.29,6.41,16.92,7.68,22.66,4.36,19.83,3.65,18.37,3.65,18.37l4.51,30.5-47.9,2.68-12.25-5.58Z"/><path id="Path_5236" data-name="Path 5236" class="cls-26" d="M215.9,401.12s-4.25-8.7-15.52-4.72c-8.16-1.77-14.39,7.89-8.38,21.05l11.33,2.63Z"/><path id="Path_5237" data-name="Path 5237" class="cls-23" d="M209.89,425.77v15.39a6.53,6.53,0,0,1-6.53,6.52,8.83,8.83,0,0,1-8.83-8.84V425.77Z"/><path id="Path_5238" data-name="Path 5238" class="cls-27" d="M209.89,432.16v8.4c-6.84,0-11.38-8.82-11.38-8.82Z"/><path id="Path_5239" data-name="Path 5239" class="cls-23" d="M216.66,423.78a30,30,0,0,1-1.85,6.23c-1.48,3.38-3.73,5.95-7.18,6-8.06.17-14.28-10.85-14.28-10.85l1.29-15,6.12-6.87,16.86,10.42A57,57,0,0,1,216.66,423.78Z"/><path id="Path_5240" data-name="Path 5240" class="cls-26" d="M194.38,420.78a22.14,22.14,0,0,1,7.46-11.17s8.43,11,17.34,5.69,5-15.78-3.27-14.17l-9.56-1.08-12,3.82-2,9.39Z"/><path id="Path_5241" data-name="Path 5241" class="cls-28" d="M202.79,498.89c-8.12-17.55-18.36-9.18-20.87-15.62-3.51-9-2.84-19.25-2.86-22.34l-4.9,27.55s10.93,1,15,7.61Z"/><path id="Path_5242" data-name="Path 5242" class="cls-29" d="M179.29,460.45c-.3,2.36-.66,4.71-1,7.05s-.79,4.68-1.18,7-.83,4.67-1.29,7l-.7,3.49c-.25,1.16-.49,2.33-.76,3.48l-.36-.06c.15-1.18.32-2.35.48-3.53l.55-3.52c.36-2.35.76-4.69,1.18-7s.84-4.68,1.31-7,.93-4.66,1.45-7Z"/><path id="Path_5243" data-name="Path 5243" class="cls-29" d="M226.87,456.09c.65,3.06,1.25,6.14,1.84,9.2s1.14,6.15,1.71,9.23,1.08,6.16,1.6,9.24l.74,4.63c.24,1.55.48,3.1.7,4.64l-.33.06c-.34-1.53-.64-3.06-1-4.59l-.89-4.61q-.87-4.61-1.7-9.23c-.53-3.08-1.08-6.16-1.58-9.24s-1-6.18-1.46-9.27Z"/><path id="Path_5244" data-name="Path 5244" class="cls-28" d="M229.13,470.33c.57,5.58-.28,34.51-13.75,34.94l.15,6.3,21.19-1.29Z"/><path id="Path_5245" data-name="Path 5245" class="cls-27" d="M201.42,504.51c9.56-4.08,11.39-3.93,12.68-3.87,4.4.22,10.74,9,10.74,9l-.11,1.61H200.56Z"/><rect id="Rectangle_1781" data-name="Rectangle 1781" class="cls-10" x="208.47" y="509.71" width="29.75" height="4.51"/><path id="Path_5246" data-name="Path 5246" class="cls-10" d="M278.79,514.19h-51.7l11.6-46.2h51.7Z"/><path id="Path_5247" data-name="Path 5247" class="cls-30" d="M283.45,495.32c-5.11-.76-21.65-4.2-55.73,16.56l-.79,2.87,51.84-.54Z"/><g id="Group_3119" data-name="Group 3119"><path id="Path_5248" data-name="Path 5248" class="cls-23" d="M284.47,505.58c-.32,2.17-.43,5.37-7.17,5l-2-1,1.88-2.07,4.05-2.06Z"/><path id="Path_5249" data-name="Path 5249" class="cls-23" d="M285.11,499.71s3.69,4.81,0,6.3a21.3,21.3,0,0,1-7.89,1.45c1.71-4.84,7.3-4.51,7.3-4.51Z"/><path id="Path_5250" data-name="Path 5250" class="cls-23" d="M285.22,496.59s5.08,4.73.35,6.05c-6.67,1.87-8.73,2-8.73,2-.36-3.55,6.26-5.84,6.26-5.84Z"/><path id="Path_5251" data-name="Path 5251" class="cls-23" d="M284.18,492.47s6.94,4.23.43,6.59-8.06,2.33-8.06,2.33c-.36-3.55,6.62-4.76,6.62-4.76Z"/><path id="Path_5252" data-name="Path 5252" class="cls-31" d="M276.55,501.39s7.57-1.08,9.83-2.9"/><path id="Path_5253" data-name="Path 5253" class="cls-31" d="M276.84,504.65s7.87-1.11,10.34-2.83"/><path id="Path_5254" data-name="Path 5254" class="cls-31" d="M277.2,507.46s4.67.15,7.3-1.13"/></g><path id="Path_5255" data-name="Path 5255" class="cls-26" d="M203.69,575.31c.79-.43,13.25,2.29,27.07-7.94l-17.83-5.09Z"/><path id="Path_5256" data-name="Path 5256" class="cls-24" d="M282.94,516.09c.6-.85,1.1-2.09.36-2.81s-2.05-.09-2.87.62a34.28,34.28,0,0,0-3.95,4l-30.1,5.59-41.24,10,7.09,9.05c20.62,1.51,32.37,1.89,45.27-.38,6.58-1.17,12.46-2.36,16.85-5.94,1-.85,2-2.29,1.35-3.45a2.54,2.54,0,0,0-2.37-1,30.06,30.06,0,0,0,6.37-2.28c.91-.43,1.92-1.12,1.9-2.13a1.88,1.88,0,0,0-1.27-1.59,4.92,4.92,0,0,0-2.12-.18,28.8,28.8,0,0,0-8,1.78C274.85,524.17,279.64,520.77,282.94,516.09Zm-12.85,11.4v0l0,0Z"/><path id="Path_5257" data-name="Path 5257" class="cls-26" d="M213.87,520s40.17-19.12,53.27-18.26,12.68,17.18,7.74,24.27-16.54,16.54-59.29,13.75Z"/><path id="Path_5258" data-name="Path 5258" d="M230.72,588c-2.17.62-5.26.77-9.5.09,0,0-5.5,1.43-10.91,2.55a50.41,50.41,0,0,1-9.14,1.32l-.48,0c-3.55-.25-8-2.1-10.41-4.75v0a6.48,6.48,0,0,1-1.42-2.36c-1.29-4,1.44-8.88,16.18-7.88,0,0,4.87-1.14,6-4.72s-7.31-20.76-7.31-20.76l12-8.16,11.81,13.1s1.79,11.81,1.79,15.68c0,0,5,7.16,5.73,10.31C235.57,584.36,234.56,586.9,230.72,588Z"/><path id="Path_5259" data-name="Path 5259" class="cls-29" d="M166.09,490c1.38-.53,2.78-1,4.2-1.36.71-.19,1.43-.37,2.16-.51.36-.08.73-.14,1.1-.19a5.23,5.23,0,0,1,.57-.06,4,4,0,0,1,.6,0,17.55,17.55,0,0,1,4.33,1.16c1.38.53,2.74,1.12,4.07,1.75s2.63,1.34,3.9,2.07,2.53,1.51,3.75,2.34a39.92,39.92,0,0,1,6.76,5.68l-.25.25c-1.08-1-2.21-1.9-3.37-2.76s-2.36-1.7-3.59-2.48a71.8,71.8,0,0,0-7.6-4.28c-1.3-.65-2.63-1.24-4-1.77a19.56,19.56,0,0,0-4.1-1.23,4,4,0,0,0-.49,0l-.53,0c-.35,0-.71.09-1.06.15-.71.12-1.43.27-2.14.43-1.41.32-2.83.7-4.22,1.13Z"/><path id="Path_5260" data-name="Path 5260" class="cls-24" d="M173.32,546.35c4.83-.33,9.58,0,13-1.18,3.69-1.29,13.32-.43,13.32-.43l-5.3-7.63-21.48,5.37Z"/><path id="Path_5261" data-name="Path 5261" class="cls-29" d="M173.55,532.35c-4.94-8-4.94-23.63,1.29-30.71,7.12-8.1,22.34-11.17,30.29-1.72s22.55,44,25.56,67.44c0,0-16.11-5.37-27.06,7.95,0,0-14.39-32.86-17.4-44.89l-8.17,6.44Z"/><path id="Path_5262" data-name="Path 5262" d="M186.13,530.35s-2.15-.79-5.15,1.21c0,0-23.49-.5-28.72,4.8s-1.21,12.39,6.45,13.17c6.43.66,18.91-4.32,22.76-5.94a7.43,7.43,0,0,1,2.45-.58l6.36-.42Z"/><path id="Path_5263" data-name="Path 5263" class="cls-23" d="M195.62,421.22s-1.58-5.23-5-3.92-1.62,8.1,5.22,10Z"/><path id="Path_5264" data-name="Path 5264" class="cls-29" d="M192,450.09a24.73,24.73,0,0,0,5.46,3,16.13,16.13,0,0,0,6,1.13,13.38,13.38,0,0,0,5.88-1.46l.68-.35c.23-.12.44-.28.65-.41a10.24,10.24,0,0,0,1.25-.91l.61-.49.3-.24.28-.28,1.12-1.1.25.22-1,1.22-.26.3-.3.27-.58.55a9.45,9.45,0,0,1-1.26,1c-.22.16-.43.33-.66.47l-.7.4a12.8,12.8,0,0,1-6.23,1.65,15.86,15.86,0,0,1-6.29-1.31,20.64,20.64,0,0,1-5.4-3.39Z"/><path id="Path_5265" data-name="Path 5265" class="cls-26" d="M182.67,516.62l1.86,6.51c.63,2.16,1.22,4.34,1.88,6.5s1.3,4.32,2,6.47c.34,1.07.67,2.15,1,3.21.18.53.35,1.07.54,1.6s.38,1.06.56,1.6l-.31.13q-.72-1.54-1.35-3.12c-.42-1-.81-2.12-1.2-3.18-.76-2.14-1.43-4.3-2.07-6.47s-1.24-4.36-1.77-6.55-1.06-4.4-1.49-6.63Z"/><path id="Path_5267" data-name="Path 5267" class="cls-26" d="M207.86,518.69a8.61,8.61,0,0,1-4.44,2.73,12.26,12.26,0,0,1-2.76.4c-3.55-.26-8-2.11-10.4-4.75l0,0a9.85,9.85,0,0,1-.7-1.07,17.26,17.26,0,0,0,4.12,2.88,16,16,0,0,0,2.28.93c.39.14.79.23,1.18.34a12.32,12.32,0,0,0,1.21.24A13.27,13.27,0,0,0,207.86,518.69Z"/><path id="Path_5268" data-name="Path 5268" class="cls-27" d="M194.06,422a3.32,3.32,0,0,0-.56-1.31,4,4,0,0,0-.94-1,1.06,1.06,0,0,0-1.1-.21,2.54,2.54,0,0,0-.88,1l-.23-.08a2.17,2.17,0,0,1,.82-1.44,1.35,1.35,0,0,1,.94-.2,1.91,1.91,0,0,1,.82.37,3.66,3.66,0,0,1,1,1.26,2.77,2.77,0,0,1,.34,1.59Z"/><path id="Path_5269" data-name="Path 5269" class="cls-26" d="M214.55,421.83c-.15.74-.71,1.25-1.25,1.14a1.24,1.24,0,0,1-.7-1.54c.15-.74.71-1.25,1.25-1.14A1.22,1.22,0,0,1,214.55,421.83Z"/><ellipse id="Ellipse_378" data-name="Ellipse 378" class="cls-26" cx="205.18" cy="421.34" rx="1.37" ry="0.99" transform="translate(-243.69 556.04) rotate(-80.74)"/><path id="Path_5270" data-name="Path 5270" class="cls-27" d="M209.72,422.51c.06.61.08,1.22.08,1.81a1.16,1.16,0,0,0,.32.63,5.42,5.42,0,0,1,.63.72,1.51,1.51,0,0,1,.22.52,2,2,0,0,1,0,.55,1.87,1.87,0,0,1-.4,1,1.51,1.51,0,0,1-.44.35,1.15,1.15,0,0,1-.55.11,1.76,1.76,0,0,1-.94-.34l.11-.22a1.72,1.72,0,0,0,.81.11.77.77,0,0,0,.56-.36,1.32,1.32,0,0,0,.05-1.37,8.62,8.62,0,0,0-.56-.67,1.53,1.53,0,0,1-.39-1c0-.62.12-1.23.21-1.84Z"/><path id="Path_5271" data-name="Path 5271" class="cls-26" d="M202.79,418.91a4.1,4.1,0,0,1,1.2-.83,3.24,3.24,0,0,1,1.5-.28,2.7,2.7,0,0,1,1.44.53,3.48,3.48,0,0,1,1,1.12l-.2.15a6.87,6.87,0,0,0-1.07-.79,2.76,2.76,0,0,0-1.19-.37,5.06,5.06,0,0,0-2.51.68Z"/><path id="Path_5272" data-name="Path 5272" class="cls-26" d="M211.55,419.65a1.77,1.77,0,0,1,.94-1,2.75,2.75,0,0,1,1.37-.31,2.8,2.8,0,0,1,1.36.37,2.24,2.24,0,0,1,.93,1l-.21.14a3,3,0,0,0-2.09-.89,2.5,2.5,0,0,0-2.07.81Z"/><path id="Path_5273" data-name="Path 5273" class="cls-13" d="M205.67,429.74l5.7.4S208.19,434.36,205.67,429.74Z"/><path id="Path_5274" data-name="Path 5274" class="cls-32" d="M216.69,423.78a30,30,0,0,1-1.85,6.23,3.29,3.29,0,0,1,1.42-6.26A3.11,3.11,0,0,1,216.69,423.78Z"/><circle id="Ellipse_379" data-name="Ellipse 379" class="cls-32" cx="202.16" cy="426.29" r="3.29"/></g><g id="Group_3108" data-name="Group 3108"><path id="Path_5178" data-name="Path 5178" class="cls-33" d="M482.41,546.73c.55-33.21-14.28-46.83-14.28-46.83-3.62,18.32,2.16,37.94,5.38,46.83Z"/><path id="Path_5179" data-name="Path 5179" class="cls-33" d="M490.35,546.66c16.17-22,13.56-39.33,13.56-39.33-14,11.65-21.19,31-23.7,39l.41.36Z"/><path id="Path_5180" data-name="Path 5180" class="cls-12" d="M500,546.63c13.79-14,16.63-25.22,16.63-25.22a59.42,59.42,0,0,0-29.72,25.22Z"/><path id="Path_5181" data-name="Path 5181" class="cls-12" d="M475.77,546.64c-5.28-23.87-18.16-31.08-18.16-31.08.28,12.36,5.92,24.16,10,31.08Z"/><path id="Path_5182" data-name="Path 5182" class="cls-12" d="M489.9,546.73c7-38.89-4.18-53.86-4.18-53.86-13.34,13.52-8.29,45.51-6.69,53.86Z"/><path id="Path_5183" data-name="Path 5183" class="cls-13" d="M486.81,546.49c-1-14.35-1.72-28.83-2-43.16a.3.3,0,0,0-.3-.3h0a.32.32,0,0,0-.3.31h0c.3,14.32,1,28.79,2,43.14Z"/><path id="Path_5184" data-name="Path 5184" class="cls-13" d="M477.75,546.42h.64a149,149,0,0,1-4.14-17.2l-4.47-22.57a.3.3,0,0,0-.35-.24h0a.3.3,0,0,0-.24.36l4.48,22.57A151.53,151.53,0,0,0,477.75,546.42Z"/><path id="Path_5185" data-name="Path 5185" class="cls-13" d="M471.47,546.38c-3.69-7.85-7.06-15.9-10-24a.31.31,0,0,0-.4-.17.31.31,0,0,0-.18.38c2.94,8.05,6.28,16,9.93,23.83Z"/><path id="Path_5186" data-name="Path 5186" class="cls-13" d="M488.55,546.4c.57-1.09,1.12-2.19,1.59-3.33a61,61,0,0,0,2.2-6.74c.37-1.32.75-2.69,1.19-4q1.67-4.77,3.79-9.35c1.24-2.78,2.52-5.66,3.54-8.59a.31.31,0,0,0-.58-.2c-1,2.91-2.28,5.77-3.52,8.54-1.42,3.07-2.7,6.21-3.81,9.41-.44,1.34-.83,2.71-1.2,4a60.34,60.34,0,0,1-2.17,6.67c-.51,1.21-1.1,2.4-1.73,3.56Z"/><path id="Path_5187" data-name="Path 5187" class="cls-13" d="M490.56,546.38c1.18-1.33,2.47-2.57,3.73-3.78l16.94-16.13a.3.3,0,0,0-.42-.44l-16.94,16.13c-1.4,1.33-2.82,2.72-4.12,4.21Z"/><path id="Path_5188" data-name="Path 5188" class="cls-19" d="M467.46,552.22l4,24.94a7.29,7.29,0,0,0,7.2,6.13H491a7.31,7.31,0,0,0,7.21-6.13l4-24.94Z"/><path id="Path_5189" data-name="Path 5189" d="M502.21,552.22H467.46l.56,3.46H494.8l-3.47,21.48a7.29,7.29,0,0,1-7.2,6.13H491a7.29,7.29,0,0,0,7.2-6.13l3.48-21.48h0Z"/><path id="Path_5190" data-name="Path 5190" class="cls-19" d="M502.73,545.14H467.21a3.64,3.64,0,0,0-3.63,3.63h0a3.65,3.65,0,0,0,3.63,3.63h35.52a3.64,3.64,0,0,0,3.63-3.63h0A3.62,3.62,0,0,0,502.73,545.14Z"/></g></svg>